<svg xmlns="http://www.w3.org/2000/svg" xmlns:xlink="http://www.w3.org/1999/xlink" width="256" zoomAndPan="magnify" viewBox="0 0 192 191.999996" height="256" preserveAspectRatio="xMidYMid meet" version="1.0"><defs><g/><clipPath id="id1"><path d="M 15.265625 12.164062 L 176.515625 12.164062 L 176.515625 165.914062 L 15.265625 165.914062 Z M 15.265625 12.164062 " clip-rule="nonzero"/></clipPath></defs><g clip-path="url(#id1)"><path fill="#95389e" d="M 95.890625 12.179688 L 120.804688 62.78125 L 176.519531 70.894531 L 136.207031 110.28125 L 145.722656 165.902344 L 95.890625 139.644531 L 46.058594 165.902344 L 55.574219 110.28125 L 15.257812 70.894531 L 70.972656 62.78125 L 95.890625 12.179688 " fill-opacity="1" fill-rule="nonzero"/></g><g fill="#ffffff" fill-opacity="1"><g transform="translate(72.584947, 116.385854)"><g><path d="M 29.242188 -39.046875 C 27.210938 -39.164062 27.386719 -37.769531 27.328125 -37.074219 C 26.804688 -30.925781 25.414062 -26.226562 24.195312 -20.191406 C 23.960938 -19.089844 24.078125 -19.148438 23.324219 -19.148438 C 20.015625 -19.148438 12.707031 -18.796875 9.515625 -18.742188 C 8.933594 -18.742188 8.878906 -18.914062 9.109375 -19.960938 C 10.09375 -24.601562 11.023438 -29.300781 11.894531 -33.710938 C 12.183594 -35.390625 12.648438 -36.785156 12.417969 -38.527344 C 12.242188 -39.453125 11.257812 -40.035156 9.746094 -40.148438 C 7.949219 -40.265625 8.066406 -39.046875 8.007812 -38.527344 C 7.367188 -32.375 5.28125 -26.050781 4.46875 -20.074219 C 4.351562 -19.148438 3.945312 -18.507812 3.539062 -18.449219 C 1.101562 -18.101562 0.464844 -17.871094 0.347656 -17.289062 L 0.40625 -17.347656 C -0.117188 -16.1875 1.160156 -15.144531 2.902344 -15.085938 L 2.667969 -15.085938 C 3.421875 -14.851562 3.421875 -15.085938 3.308594 -14.796875 C 2.726562 -12.011719 2.4375 -9.339844 1.796875 -6.730469 C 1.335938 -4.757812 0.523438 -2.148438 0.871094 0.523438 C 1.101562 1.390625 1.335938 1.625 2.261719 1.914062 C 2.960938 2.089844 3.480469 1.855469 4.175781 1.335938 L 4.234375 1.277344 C 5.105469 0.289062 5.394531 -0.464844 5.6875 -2.378906 C 6.324219 -6.5 7.3125 -9.804688 7.890625 -13.75 C 8.121094 -15.203125 8.238281 -15.257812 9.167969 -15.375 C 10.792969 -15.550781 15.375 -15.78125 17.464844 -15.78125 L 17.523438 -15.78125 C 18.683594 -15.839844 21.640625 -15.722656 23.324219 -15.609375 C 23.789062 -15.609375 23.5 -15.78125 23.324219 -14.851562 C 22.859375 -11.835938 22.046875 -8.121094 21.582031 -5.453125 L 21.582031 -5.394531 C 21.46875 -3.769531 21.175781 -2.320312 21.121094 -0.753906 L 21.121094 -0.8125 C 20.945312 0.347656 21.582031 1.042969 23.035156 1.277344 C 24.367188 1.507812 25.414062 0.871094 25.820312 -0.464844 C 26.457031 -2.378906 26.398438 -4.410156 26.746094 -6.207031 C 28.082031 -13.519531 29.066406 -21.46875 30.460938 -28.257812 C 31.097656 -31.390625 31.445312 -33.535156 31.851562 -36.785156 C 31.910156 -38.175781 30.925781 -38.988281 29.242188 -39.046875 Z M 29.242188 -39.046875 "/></g></g></g><g fill="#ffffff" fill-opacity="1"><g transform="translate(108.209575, 116.385854)"><g><path d="M 5.859375 -29.472656 C 7.832031 -29.648438 8.878906 -30.519531 8.820312 -31.96875 C 8.820312 -33.476562 7.3125 -34.695312 5.800781 -34.464844 C 4.0625 -34.230469 3.015625 -33.363281 2.84375 -32.027344 C 2.726562 -30.691406 4.351562 -29.417969 5.859375 -29.472656 Z M 3.945312 0.289062 C 6.730469 0.347656 9.632812 -1.042969 11.371094 -2.902344 C 12.183594 -4.46875 13.75 -5.800781 13.519531 -7.542969 C 13.402344 -8.414062 13.230469 -8.644531 12.359375 -8.992188 C 10.792969 -9.632812 10.5 -8.296875 10.386719 -8.179688 C 9.515625 -6.5 8.179688 -4.582031 7.019531 -3.65625 C 6.207031 -2.902344 4.582031 -2.320312 3.828125 -2.667969 L 3.828125 -2.609375 C 3.480469 -2.84375 3.480469 -4.351562 3.480469 -5.511719 C 3.769531 -10.039062 4.757812 -14.445312 5.800781 -18.742188 C 6.148438 -20.074219 6.382812 -21.410156 6.613281 -23.265625 C 6.730469 -24.367188 6.035156 -25.066406 4.640625 -25.355469 L 4.699219 -25.355469 C 3.714844 -25.585938 2.667969 -25.121094 2.4375 -24.253906 L 2.378906 -24.195312 C 1.101562 -18.160156 -0.695312 -12.359375 -1.160156 -6.324219 C -1.449219 -2.378906 0.523438 0.230469 3.945312 0.289062 Z M 3.945312 0.289062 "/></g></g></g></svg>