<svg xmlns="http://www.w3.org/2000/svg" xmlns:xlink="http://www.w3.org/1999/xlink" width="512" zoomAndPan="magnify" viewBox="0 0 384 191.999996" height="256" preserveAspectRatio="xMidYMid meet" version="1.0"><defs><g/><clipPath id="e85ee1c488"><path d="M 0.441406 12.164062 L 161.691406 12.164062 L 161.691406 165.914062 L 0.441406 165.914062 Z M 0.441406 12.164062 " clip-rule="nonzero"/></clipPath></defs><g clip-path="url(#e85ee1c488)"><path fill="#95389e" d="M 81.066406 12.179688 L 105.980469 62.78125 L 161.695312 70.894531 L 121.382812 110.28125 L 130.898438 165.902344 L 81.066406 139.644531 L 31.234375 165.902344 L 40.75 110.28125 L 0.433594 70.894531 L 56.148438 62.78125 L 81.066406 12.179688 " fill-opacity="1" fill-rule="nonzero"/></g><path fill="#ffffff" d="M 87 77.339844 C 84.96875 77.222656 85.144531 78.617188 85.085938 79.3125 C 84.5625 85.460938 83.171875 90.160156 81.953125 96.195312 C 81.71875 97.296875 81.835938 97.238281 81.082031 97.238281 C 77.773438 97.238281 70.464844 97.589844 67.273438 97.644531 C 66.691406 97.644531 66.636719 97.472656 66.867188 96.425781 C 67.851562 91.785156 68.78125 87.085938 69.652344 82.675781 C 69.941406 80.996094 70.40625 79.601562 70.175781 77.859375 C 70 76.933594 69.015625 76.351562 67.503906 76.238281 C 65.707031 76.121094 65.824219 77.339844 65.765625 77.859375 C 65.125 84.011719 63.039062 90.335938 62.226562 96.3125 C 62.109375 97.238281 61.703125 97.878906 61.296875 97.9375 C 58.859375 98.285156 58.222656 98.515625 58.105469 99.097656 L 58.164062 99.039062 C 57.640625 100.199219 58.917969 101.242188 60.660156 101.300781 L 60.425781 101.300781 C 61.179688 101.535156 61.179688 101.300781 61.066406 101.589844 C 60.484375 104.375 60.195312 107.046875 59.554688 109.65625 C 59.09375 111.628906 58.28125 114.238281 58.628906 116.910156 C 58.859375 117.777344 59.09375 118.011719 60.019531 118.300781 C 60.71875 118.476562 61.238281 118.242188 61.933594 117.722656 L 61.992188 117.664062 C 62.863281 116.675781 63.152344 115.921875 63.445312 114.007812 C 64.082031 109.886719 65.070312 106.582031 65.648438 102.636719 C 65.878906 101.183594 65.996094 101.128906 66.925781 101.011719 C 68.550781 100.835938 73.132812 100.605469 75.222656 100.605469 L 75.28125 100.605469 C 76.441406 100.546875 79.398438 100.664062 81.082031 100.777344 C 81.546875 100.777344 81.257812 100.605469 81.082031 101.535156 C 80.617188 104.550781 79.804688 108.265625 79.339844 110.933594 L 79.339844 110.992188 C 79.226562 112.617188 78.933594 114.066406 78.878906 115.632812 L 78.878906 115.574219 C 78.703125 116.734375 79.339844 117.429688 80.792969 117.664062 C 82.125 117.894531 83.171875 117.257812 83.578125 115.921875 C 84.214844 114.007812 84.15625 111.976562 84.503906 110.179688 C 85.839844 102.867188 86.824219 94.917969 88.21875 88.128906 C 88.855469 84.996094 89.203125 82.851562 89.609375 79.601562 C 89.667969 78.210938 88.683594 77.398438 87 77.339844 Z M 87 77.339844 " fill-opacity="1" fill-rule="nonzero"/><path fill="#ffffff" d="M 99.242188 86.914062 C 101.214844 86.738281 102.261719 85.867188 102.203125 84.417969 C 102.203125 82.910156 100.695312 81.691406 99.183594 81.921875 C 97.445312 82.15625 96.398438 83.023438 96.226562 84.359375 C 96.109375 85.695312 97.734375 86.96875 99.242188 86.914062 Z M 97.328125 116.675781 C 100.113281 116.734375 103.015625 115.34375 104.753906 113.484375 C 105.566406 111.917969 107.132812 110.585938 106.902344 108.84375 C 106.785156 107.972656 106.613281 107.742188 105.742188 107.394531 C 104.175781 106.753906 103.882812 108.089844 103.769531 108.207031 C 102.898438 109.886719 101.5625 111.804688 100.402344 112.730469 C 99.589844 113.484375 97.964844 114.066406 97.210938 113.71875 L 97.210938 113.777344 C 96.863281 113.542969 96.863281 112.035156 96.863281 110.875 C 97.152344 106.347656 98.140625 101.941406 99.183594 97.644531 C 99.53125 96.3125 99.765625 94.976562 99.996094 93.121094 C 100.113281 92.019531 99.417969 91.320312 98.023438 91.03125 L 98.082031 91.03125 C 97.097656 90.800781 96.050781 91.265625 95.820312 92.132812 L 95.761719 92.191406 C 94.484375 98.226562 92.6875 104.027344 92.222656 110.0625 C 91.933594 114.007812 93.90625 116.617188 97.328125 116.675781 Z M 97.328125 116.675781 " fill-opacity="1" fill-rule="nonzero"/><g fill="#95389e" fill-opacity="1"><g transform="translate(175.598006, 123.509956)"><g><path d="M 43.0625 -57.5 C 40.070312 -57.671875 40.328125 -55.621094 40.242188 -54.59375 C 39.472656 -45.539062 37.421875 -38.617188 35.628906 -29.730469 C 35.285156 -28.109375 35.457031 -28.195312 34.347656 -28.195312 C 29.476562 -28.195312 18.710938 -27.683594 14.011719 -27.597656 C 13.15625 -27.597656 13.070312 -27.851562 13.414062 -29.390625 C 14.867188 -36.226562 16.234375 -43.144531 17.515625 -49.640625 C 17.941406 -52.117188 18.625 -54.167969 18.285156 -56.730469 C 18.027344 -58.097656 16.574219 -58.953125 14.355469 -59.125 C 11.703125 -59.292969 11.875 -57.5 11.789062 -56.730469 C 10.851562 -47.675781 7.773438 -38.363281 6.578125 -29.5625 C 6.40625 -28.195312 5.808594 -27.253906 5.210938 -27.167969 C 1.625 -26.65625 0.683594 -26.316406 0.511719 -25.460938 L 0.597656 -25.546875 C -0.171875 -23.835938 1.707031 -22.300781 4.273438 -22.214844 L 3.929688 -22.214844 C 5.039062 -21.871094 5.039062 -22.214844 4.871094 -21.785156 C 4.015625 -17.6875 3.589844 -13.753906 2.648438 -9.910156 C 1.964844 -7.007812 0.769531 -3.160156 1.28125 0.769531 C 1.625 2.050781 1.964844 2.390625 3.332031 2.820312 C 4.355469 3.074219 5.125 2.734375 6.152344 1.964844 L 6.238281 1.878906 C 7.519531 0.425781 7.945312 -0.683594 8.371094 -3.503906 C 9.3125 -9.570312 10.765625 -14.4375 11.621094 -20.25 C 11.960938 -22.382812 12.132812 -22.46875 13.5 -22.640625 C 15.890625 -22.898438 22.640625 -23.238281 25.71875 -23.238281 L 25.800781 -23.238281 C 27.511719 -23.324219 31.867188 -23.152344 34.347656 -22.984375 C 35.03125 -22.984375 34.601562 -23.238281 34.347656 -21.871094 C 33.664062 -17.429688 32.464844 -11.960938 31.78125 -8.03125 L 31.78125 -7.945312 C 31.613281 -5.554688 31.183594 -3.417969 31.097656 -1.109375 L 31.097656 -1.195312 C 30.84375 0.511719 31.78125 1.539062 33.917969 1.878906 C 35.882812 2.222656 37.421875 1.28125 38.019531 -0.683594 C 38.960938 -3.503906 38.875 -6.492188 39.386719 -9.140625 C 41.351562 -19.90625 42.804688 -31.613281 44.855469 -41.609375 C 45.792969 -46.222656 46.308594 -49.382812 46.90625 -54.167969 C 46.992188 -56.21875 45.539062 -57.414062 43.0625 -57.5 Z M 43.0625 -57.5 "/></g></g></g><g fill="#95389e" fill-opacity="1"><g transform="translate(228.052562, 123.509956)"><g><path d="M 8.628906 -43.402344 C 11.535156 -43.660156 13.070312 -44.941406 12.988281 -47.078125 C 12.988281 -49.296875 10.765625 -51.09375 8.542969 -50.75 C 5.980469 -50.410156 4.441406 -49.125 4.1875 -47.160156 C 4.015625 -45.195312 6.40625 -43.316406 8.628906 -43.402344 Z M 5.808594 0.425781 C 9.910156 0.511719 14.183594 -1.539062 16.746094 -4.273438 C 17.941406 -6.578125 20.25 -8.542969 19.90625 -11.105469 C 19.734375 -12.386719 19.480469 -12.730469 18.199219 -13.242188 C 15.890625 -14.183594 15.464844 -12.21875 15.292969 -12.046875 C 14.011719 -9.570312 12.046875 -6.75 10.339844 -5.382812 C 9.140625 -4.273438 6.75 -3.417969 5.640625 -3.929688 L 5.640625 -3.84375 C 5.125 -4.1875 5.125 -6.40625 5.125 -8.117188 C 5.554688 -14.78125 7.007812 -21.273438 8.542969 -27.597656 C 9.054688 -29.5625 9.398438 -31.527344 9.738281 -34.261719 C 9.910156 -35.882812 8.886719 -36.910156 6.835938 -37.335938 L 6.921875 -37.335938 C 5.46875 -37.679688 3.929688 -36.996094 3.589844 -35.714844 L 3.503906 -35.628906 C 1.625 -26.742188 -1.023438 -18.199219 -1.707031 -9.3125 C -2.136719 -3.503906 0.769531 0.339844 5.808594 0.425781 Z M 5.808594 0.425781 "/></g></g></g><g fill="#95389e" fill-opacity="1"><g transform="translate(244.540719, 123.509956)"><g><path d="M 32.636719 -58.523438 C 23.75 -61.6875 15.292969 -61.855469 6.578125 -60.320312 C 1.625 -59.464844 -0.257812 -57.757812 1.878906 -55.621094 C 3.246094 -54.253906 3.929688 -54.253906 7.773438 -55.363281 C 15.378906 -57.671875 21.957031 -57.5 30.585938 -54.59375 C 37.847656 -52.289062 41.949219 -46.734375 41.949219 -39.300781 C 41.949219 -26.828125 34.175781 -13.5 24.09375 -8.457031 C 14.78125 -3.929688 7.945312 -3.332031 7.261719 -3.84375 L 7.347656 -3.84375 L 7.945312 -5.808594 C 10.765625 -18.199219 12.644531 -28.535156 15.292969 -42.378906 C 15.890625 -45.625 16.402344 -47.929688 16.832031 -50.835938 C 17.171875 -52.972656 15.121094 -54.765625 12.644531 -54.765625 L 12.730469 -54.765625 C 8.972656 -54.9375 10.253906 -52.542969 10.082031 -51.777344 L 10.082031 -51.261719 L 9.996094 -51.175781 C 8.886719 -41.863281 6.066406 -33.917969 4.699219 -24.863281 C 3.84375 -18.796875 1.367188 -11.191406 0.425781 -1.878906 C 0.257812 0.171875 1.792969 1.28125 4.699219 1.28125 C 11.363281 1.28125 17.6875 0.0859375 22.554688 -1.964844 C 29.304688 -4.957031 34.601562 -7.007812 40.15625 -14.183594 C 45.710938 -21.359375 47.417969 -25.632812 48.359375 -34.261719 C 49.640625 -46.050781 44.257812 -54.253906 32.636719 -58.523438 Z M 32.636719 -58.523438 "/></g></g></g><g fill="#95389e" fill-opacity="1"><g transform="translate(297.764151, 123.509956)"><g><path d="M 8.289062 0.597656 C 11.703125 1.539062 16.488281 0.769531 18.539062 -1.195312 C 24.351562 -6.75 27 -13.5 27.253906 -23.238281 C 27.253906 -25.117188 26.144531 -26.398438 24.007812 -27.167969 C 22.128906 -27.851562 20.335938 -27.167969 20.675781 -25.546875 L 20.675781 -25.632812 C 20.761719 -24.433594 21.101562 -23.066406 20.847656 -22.042969 C 19.394531 -15.804688 17.941406 -9.738281 14.097656 -5.554688 C 12.046875 -3.246094 11.277344 -2.820312 9.824219 -3.332031 C 8.289062 -3.757812 6.921875 -5.980469 6.324219 -9.140625 C 5.46875 -12.988281 5.554688 -15.804688 6.664062 -20.503906 C 8.203125 -27 9.65625 -32.550781 15.71875 -34.515625 C 17.085938 -34.945312 17.515625 -34.773438 18.113281 -33.832031 C 18.710938 -32.980469 18.453125 -31.867188 18.710938 -31.183594 C 19.136719 -30.074219 20.589844 -29.132812 22.128906 -29.050781 L 22.214844 -29.050781 C 23.582031 -29.050781 24.777344 -29.816406 25.035156 -30.929688 C 25.972656 -34.429688 21.871094 -38.445312 17.085938 -38.617188 C 12.558594 -38.875 8.714844 -36.910156 5.125 -32.636719 C 1.707031 -28.449219 0.257812 -24.777344 -0.941406 -17.171875 C -2.390625 -7.347656 0.425781 -1.792969 8.289062 0.597656 Z M 8.289062 0.597656 "/></g></g></g><g fill="#95389e" fill-opacity="1"><g transform="translate(330.14245, 123.509956)"><g><path d="M 15.890625 1.109375 C 22.214844 -0.257812 28.367188 -4.957031 31.867188 -11.023438 C 32.464844 -11.875 32.296875 -11.875 32.464844 -12.304688 C 33.066406 -14.097656 32.980469 -14.355469 31.183594 -15.550781 C 30.414062 -15.976562 28.878906 -15.804688 28.109375 -15.035156 C 27.253906 -14.183594 26.058594 -12.472656 25.632812 -11.960938 C 22.46875 -8.117188 18.625 -5.125 15.378906 -3.84375 C 10.9375 -1.964844 7.261719 -4.273438 5.980469 -9.65625 C 5.808594 -10.253906 5.722656 -11.191406 5.722656 -12.816406 C 5.722656 -17.855469 6.324219 -21.359375 7.945312 -25.289062 C 9.65625 -29.816406 11.960938 -32.980469 14.78125 -34.859375 C 16.402344 -35.96875 16.660156 -35.882812 17.6875 -35.03125 C 18.453125 -34.261719 18.625 -32.808594 18.113281 -30.757812 C 17.515625 -28.367188 16.917969 -26.914062 16.234375 -26.398438 C 15.121094 -25.71875 14.953125 -25.460938 15.292969 -24.605469 C 15.71875 -23.582031 16.402344 -23.410156 17.429688 -23.410156 C 22.382812 -23.410156 24.777344 -27.425781 24.433594 -32.296875 C 24.265625 -34.945312 22.46875 -37.335938 19.222656 -39.046875 C 16.488281 -40.582031 11.875 -39.046875 10.765625 -38.191406 C 8.972656 -36.824219 7.6875 -35.628906 6.238281 -34.003906 L 6.152344 -34.003906 C 2.5625 -29.476562 0.597656 -24.605469 -1.023438 -15.890625 L -1.023438 -15.804688 C -1.109375 -14.609375 -1.28125 -13.070312 -1.28125 -12.046875 C -1.28125 -3.160156 6.835938 3.074219 15.890625 1.109375 Z M 15.890625 1.109375 "/></g></g></g><g fill="#95389e" fill-opacity="1"><g transform="translate(359.530663, 123.509956)"><g><path d="M 8.457031 0.855469 C 12.730469 0.855469 15.207031 -0.597656 18.113281 -2.136719 C 21.273438 -3.757812 23.75 -7.519531 23.921875 -10.765625 C 24.351562 -17.34375 20.933594 -22.128906 13.585938 -25.289062 C 12.558594 -25.546875 10.9375 -26.230469 9.226562 -26.914062 C 7.6875 -27.597656 7.519531 -27.851562 9.140625 -29.390625 C 11.449219 -31.441406 14.183594 -32.464844 20.503906 -33.664062 C 22.898438 -34.089844 23.667969 -34.601562 23.238281 -35.96875 C 22.8125 -37.933594 21.445312 -38.875 19.566406 -38.53125 C 14.609375 -37.679688 7.175781 -36.3125 3.589844 -32.210938 C 0.171875 -28.367188 1.453125 -23.835938 6.324219 -22.042969 C 8.203125 -21.359375 10.339844 -21.019531 12.21875 -19.90625 C 15.976562 -17.6875 17.003906 -16.574219 17.429688 -14.269531 C 17.855469 -11.703125 17.003906 -9.054688 15.464844 -7.859375 C 12.558594 -5.554688 11.621094 -5.039062 8.628906 -4.871094 C 4.957031 -4.699219 3.589844 -6.492188 2.992188 -12.21875 C 2.90625 -12.644531 2.648438 -13.242188 1.195312 -13.5 C 0.339844 -13.671875 -0.683594 -13.414062 -1.109375 -12.558594 C -2.734375 -9.65625 -2.476562 -5.382812 -0.425781 -2.5625 C 1.195312 -0.511719 4.785156 0.855469 8.457031 0.855469 Z M 8.457031 0.855469 "/></g></g></g></svg>